<svg xmlns="http://www.w3.org/2000/svg" width="28.35" height="28.35" viewBox="0 0 28.35 28.35"><path class="iconMore_hamburger" d="M2.932 6.005A2.173 2.173 0 0 1 .707 3.887v-.105a2.225 2.225 0 0 1 2.16-2.286l.064-.001h22.426a2.278 2.278 0 0 1 2.286 2.268v.019a2.224 2.224 0 0 1-2.224 2.225l-.062-.001H2.932zM25.358 11.533a2.278 2.278 0 0 1 2.286 2.267v.02a2.225 2.225 0 0 1-2.224 2.226l-.062-.001H2.932a2.175 2.175 0 0 1-2.225-2.119v-.105a2.225 2.225 0 0 1 2.16-2.286h22.491zM25.358 21.633a2.224 2.224 0 0 1 2.285 2.16l.001.064a2.277 2.277 0 0 1-2.268 2.287H2.932A2.223 2.223 0 0 1 .707 23.92v-.063a2.173 2.173 0 0 1 2.224-2.225h22.427z"></path></svg>